<svg width="275" height="275" viewBox="0 0 275 275" fill="none" xmlns="http://www.w3.org/2000/svg">
<line x1="34" y1="3" x2="237" y2="2.99998" stroke="#952220" stroke-width="6"/>
<line x1="272" y1="32" x2="272" y2="249" stroke="#952220" stroke-width="6"/>
<line x1="34" y1="272" x2="237" y2="272" stroke="#952220" stroke-width="6"/>
<line x1="3" y1="32" x2="3.00001" y2="249" stroke="#952220" stroke-width="6"/>
<path d="M53.9999 99C126.602 103 150.046 148.49 126.602 215.667C111.978 188.562 102.663 171.794 86.8789 153.634C86.2595 152.921 85.1005 153.396 85.1562 154.338C86.4203 175.706 89.6619 193.825 106.5 226.5C43.6434 206.5 16.5472 179.013 53.9999 99Z" fill="#BC8D42"/>
<path d="M204.72 44C160.232 58.402 140.684 71.7351 113 102.522C131.746 113.284 145.805 125.392 149.822 172.478C160.624 137.498 168.05 110.162 187.668 88.0142C188.285 87.3176 189.413 87.7996 189.362 88.7288C186.563 140.471 173.665 177.685 157.186 231C235.546 203.096 265.344 174.711 204.72 44Z" fill="#952220"/>
</svg>
