<svg width="1256" height="354" viewBox="0 0 1256 354" fill="none" xmlns="http://www.w3.org/2000/svg">
<path d="M485.059 14.559V20.889H472.188L431.887 159.516H423.658L386.522 38.613L384.623 32.494C381.88 24.054 377.66 20.889 369.431 20.889H367.11V14.559H416.062V20.889H401.925L433.575 126.178L458.262 41.145C460.161 34.815 460.372 33.338 460.372 31.228C460.372 24.265 456.152 20.889 447.712 20.889H444.969V14.559H485.059Z" fill="#952220"/>
<path d="M506.513 55.915V72.584C516.219 63.933 522.76 60.979 532.044 60.979C543.016 60.979 553.355 66.254 558.63 74.483C561.795 79.336 563.061 85.244 563.061 94.95V140.737C563.272 148.966 565.382 151.076 573.4 151.076H576.987V155.296H547.658V148.544C540.695 154.663 534.154 157.406 525.925 157.406C509.045 157.406 495.963 144.535 495.963 127.866C495.963 110.353 511.788 94.739 529.512 94.739C536.053 94.739 540.695 96.216 547.658 100.436V90.941C547.658 81.446 547.236 78.914 545.126 74.905C542.594 70.052 536.475 66.887 530.356 66.887C522.338 66.887 514.953 71.951 510.733 80.18C508.201 85.033 506.935 90.308 506.513 98.748H502.082V55.915H506.513ZM547.658 112.463C542.172 105.289 533.943 100.647 526.558 100.647C515.797 100.647 507.99 109.087 507.99 121.114C507.99 136.517 518.54 149.81 530.567 149.81C538.374 149.81 546.814 143.691 547.658 137.361V112.463Z" fill="#952220"/>
<path d="M652.017 55.493V91.363H647.586V87.565C647.586 80.18 646.742 77.226 643.788 73.428C640.623 68.997 635.348 66.254 629.862 66.254C622.055 66.254 615.725 71.318 615.725 77.437C615.725 82.712 619.734 86.932 628.596 90.73L631.972 92.207L641.045 96.005C659.613 104.023 666.365 111.83 666.365 124.912C666.365 143.902 649.485 157.406 626.275 157.406C606.019 157.406 590.616 144.957 590.616 128.499C590.616 116.894 600.111 107.188 611.716 107.188C620.578 107.188 627.752 113.307 627.752 120.692C627.752 126.178 623.11 131.875 618.679 131.875C616.358 131.875 614.459 130.187 614.459 128.288C614.459 127.655 614.67 126.811 615.092 125.756C615.725 123.857 616.147 122.802 616.147 121.536C616.147 117.316 612.56 114.151 607.707 114.151C601.377 114.151 596.313 119.848 596.313 127.022C596.313 139.893 612.138 151.709 629.229 151.709C644.21 151.709 654.971 142.847 654.971 130.609C654.971 120.903 650.751 116.472 634.926 110.142L628.807 107.61C611.083 100.647 604.331 93.684 604.331 82.712C604.331 70.474 614.881 60.979 628.596 60.979C635.137 60.979 639.99 62.456 647.586 66.676V55.493H652.017Z" fill="#952220"/>
<path d="M694.064 55.915V72.584C703.77 63.933 710.311 60.979 719.595 60.979C730.567 60.979 740.906 66.254 746.181 74.483C749.346 79.336 750.612 85.244 750.612 94.95V140.737C750.823 148.966 752.933 151.076 760.951 151.076H764.538V155.296H735.209V148.544C728.246 154.663 721.705 157.406 713.476 157.406C696.596 157.406 683.514 144.535 683.514 127.866C683.514 110.353 699.339 94.739 717.063 94.739C723.604 94.739 728.246 96.216 735.209 100.436V90.941C735.209 81.446 734.787 78.914 732.677 74.905C730.145 70.052 724.026 66.887 717.907 66.887C709.889 66.887 702.504 71.951 698.284 80.18C695.752 85.033 694.486 90.308 694.064 98.748H689.633V55.915H694.064ZM735.209 112.463C729.723 105.289 721.494 100.647 714.109 100.647C703.348 100.647 695.541 109.087 695.541 121.114C695.541 136.517 706.091 149.81 718.118 149.81C725.925 149.81 734.365 143.691 735.209 137.361V112.463Z" fill="#952220"/>
<path d="M806.23 72.795C814.037 64.355 820.578 60.979 829.44 60.979C837.247 60.979 843.788 64.566 847.586 70.685C849.907 74.483 850.329 77.437 850.329 86.088V138.627C850.329 148.544 852.228 151.076 859.613 151.076H862.567V155.296H826.275V151.076H834.715V89.886C834.715 79.758 834.293 76.382 832.394 73.85C830.073 70.896 826.486 68.997 822.266 68.997C814.459 68.997 809.395 73.639 806.23 83.978V138.416C806.019 147.278 809.184 151.076 816.358 151.076H818.046V155.296H781.754V151.076H790.405V79.547L783.231 86.299L780.066 83.134L807.496 56.97L810.872 60.135L806.23 64.777V72.795Z" fill="#952220"/>
<path d="M902.748 17.091V63.089H921.738V67.309H902.748V129.132C902.748 135.884 903.17 139.471 904.014 142.425C905.702 147.911 910.977 151.92 916.885 151.92C921.738 151.92 926.591 149.177 930.178 144.746C931.866 142.636 932.921 141.159 935.664 136.095L939.884 138.416C935.031 151.709 927.435 157.406 914.986 157.406C905.069 157.406 896.84 153.397 891.354 145.801C887.978 141.159 886.712 134.829 886.712 123.435V67.309H879.327L878.483 63.089H886.712V32.283L902.748 17.091Z" fill="#952220"/>
<path d="M972.327 70.052C979.923 63.722 986.675 60.979 994.482 60.979C1002.5 60.979 1009.67 64.355 1013.47 70.052C1016 73.639 1016.64 77.648 1016.64 89.042V142.214C1016.85 148.333 1019.59 151.076 1025.92 151.076H1028.87V155.296H992.583V151.076H1001.23V89.042C1001.23 78.281 1000.81 76.171 998.702 73.217C996.17 69.841 991.95 67.731 987.308 67.731C980.345 67.731 975.703 71.318 972.327 78.914V138.416C972.327 147.278 975.281 151.076 982.666 151.076H984.354V155.296H948.062V151.076H956.713V22.577L949.539 29.329L946.374 26.164L973.804 0L976.969 3.16501L972.327 7.807V70.052Z" fill="#952220"/>
<path d="M1054.95 55.915V72.584C1064.65 63.933 1071.2 60.979 1080.48 60.979C1091.45 60.979 1101.79 66.254 1107.07 74.483C1110.23 79.336 1111.5 85.244 1111.5 94.95V140.737C1111.71 148.966 1113.82 151.076 1121.84 151.076H1125.42V155.296H1096.09V148.544C1089.13 154.663 1082.59 157.406 1074.36 157.406C1057.48 157.406 1044.4 144.535 1044.4 127.866C1044.4 110.353 1060.22 94.739 1077.95 94.739C1084.49 94.739 1089.13 96.216 1096.09 100.436V90.941C1096.09 81.446 1095.67 78.914 1093.56 74.905C1091.03 70.052 1084.91 66.887 1078.79 66.887C1070.77 66.887 1063.39 71.951 1059.17 80.18C1056.64 85.033 1055.37 90.308 1054.95 98.748H1050.52V55.915H1054.95ZM1096.09 112.463C1090.61 105.289 1082.38 100.647 1074.99 100.647C1064.23 100.647 1056.43 109.087 1056.43 121.114C1056.43 136.517 1066.98 149.81 1079 149.81C1086.81 149.81 1095.25 143.691 1096.09 137.361V112.463Z" fill="#952220"/>
<path d="M1166.48 69.208C1174.08 63.3 1179.77 60.979 1186.53 60.979C1193.7 60.979 1198.55 64.144 1202.35 71.318C1210.58 64.144 1217.75 60.979 1225.56 60.979C1232.95 60.979 1239.49 65.41 1241.6 71.74C1242.65 75.538 1243.29 80.602 1243.29 89.253V138.627C1243.29 148.966 1244.76 151.076 1252.78 151.076H1255.52V155.296H1220.5V151.076H1227.88V84.611C1227.88 77.648 1227.46 75.96 1226.19 73.639C1224.93 70.685 1221.34 68.575 1218.18 68.575C1212.48 68.575 1208.26 71.951 1204.67 79.125V137.361C1204.67 148.122 1206.15 150.443 1212.9 150.865C1213.32 150.865 1214.17 151.076 1215.01 151.076V155.296H1182.52V151.076H1188.85V89.886C1188.85 80.18 1188.85 77.437 1188 74.905C1186.74 70.685 1183.57 68.153 1179.56 68.153C1175.34 68.153 1172.18 70.052 1166.48 75.749V137.361C1166.48 147.278 1169.01 150.654 1176.4 151.076V155.296H1142.43V151.076H1151.08V79.547L1143.9 86.299L1140.95 83.134L1167.96 56.97L1171.12 60.135L1166.48 64.777V69.208Z" fill="#952220"/>
<path d="M477.925 182.046V222.471H472.675V217.221C472.675 200.946 465.5 194.996 446.25 194.996H439.775V222.996H454.3V207.071H459.725V248.896H454.3V243.996C454.3 232.796 450.8 228.421 441.875 228.421C441.525 228.421 440.65 228.421 439.775 228.421V301.046H445.025C452.55 301.046 455 300.871 459.2 299.646C469.35 296.671 472.675 290.721 472.675 275.496V270.596H477.925V313.821H472.675V306.296H411.775V301.046H424.025V213.021C424.025 200.246 424.025 199.721 421.925 197.446C420.175 195.521 418.425 194.821 414.4 194.821H412.125V189.571H472.675V182.046H477.925Z" fill="#952220"/>
<path d="M513.13 237.871C519.605 230.871 525.03 228.071 532.38 228.071C538.855 228.071 544.28 231.046 547.43 236.121C549.355 239.271 549.705 241.721 549.705 248.896V292.471C549.705 300.696 551.28 302.796 557.405 302.796H559.855V306.296H529.755V302.796H536.755V252.046C536.755 243.646 536.405 240.846 534.83 238.746C532.905 236.296 529.93 234.721 526.43 234.721C519.955 234.721 515.755 238.571 513.13 247.146V292.296C512.955 299.646 515.58 302.796 521.53 302.796H522.93V306.296H492.83V302.796H500.005V243.471L494.055 249.071L491.43 246.446L514.18 224.746L516.98 227.371L513.13 231.221V237.871Z" fill="#952220"/>
<path d="M589.68 191.671V229.821H605.43V233.321H589.68V284.596C589.68 290.196 590.03 293.171 590.73 295.621C592.13 300.171 596.505 303.496 601.405 303.496C605.43 303.496 609.455 301.221 612.43 297.546C613.83 295.796 614.705 294.571 616.98 290.371L620.48 292.296C616.455 303.321 610.155 308.046 599.83 308.046C591.605 308.046 584.78 304.721 580.23 298.421C577.43 294.571 576.38 289.321 576.38 279.871V233.321H570.255L569.555 229.821H576.38V204.271L589.68 191.671Z" fill="#952220"/>
<path d="M636.631 251.696C634.531 256.421 633.831 259.396 633.831 264.296C633.831 283.896 651.331 301.396 671.106 301.396C684.756 301.396 695.956 294.221 702.956 280.921L706.456 282.671C699.281 298.596 684.056 308.046 665.331 308.046C642.406 308.046 624.906 291.421 624.906 269.721C624.906 246.446 644.506 228.071 669.531 228.071C687.031 228.071 700.506 236.821 706.106 251.696H636.631ZM638.556 247.846H689.831C684.406 238.921 675.306 234.021 664.456 234.021C653.781 234.021 644.681 238.921 638.556 247.846Z" fill="#952220"/>
<path d="M765.935 223.346V256.596H762.26V248.896C762.26 240.321 757.885 234.896 750.535 234.896C745.46 234.896 740.56 238.396 736.885 243.996V292.296C736.885 299.646 739.335 302.796 745.46 302.796H748.085V306.296H716.935V302.796H724.11V243.471L718.16 249.071L715.71 246.446L738.11 224.746L740.735 227.371L736.885 231.221V238.221C739.86 235.071 740.91 234.021 742.66 232.621C745.985 229.996 750.71 228.071 754.385 228.071C757.01 228.071 759.46 228.771 762.085 230.346V223.346H765.935Z" fill="#952220"/>
<path d="M795.866 299.821V339.721C795.866 347.246 798.316 350.396 804.441 350.396H808.641V353.896H775.916V350.396H783.091V243.471L777.141 249.071L774.691 246.446L797.091 224.746L799.716 227.371L795.866 231.221V236.471C803.391 230.871 811.441 228.071 821.066 228.071C844.516 228.071 862.016 244.871 862.016 267.446C862.016 289.846 843.466 308.046 820.716 308.046C811.441 308.046 804.791 305.771 795.866 299.821ZM795.866 242.421V288.971C802.341 298.246 811.266 303.321 821.766 303.321C837.691 303.321 849.591 290.371 849.591 273.046C849.591 263.946 846.441 254.321 841.366 247.146C835.766 239.271 827.016 235.071 816.866 235.071C808.641 235.071 802.691 237.171 795.866 242.421Z" fill="#952220"/>
<path d="M922.69 223.346V256.596H919.015V248.896C919.015 240.321 914.64 234.896 907.29 234.896C902.215 234.896 897.315 238.396 893.64 243.996V292.296C893.64 299.646 896.09 302.796 902.215 302.796H904.84V306.296H873.69V302.796H880.865V243.471L874.915 249.071L872.465 246.446L894.865 224.746L897.49 227.371L893.64 231.221V238.221C896.615 235.071 897.665 234.021 899.415 232.621C902.74 229.996 907.465 228.071 911.14 228.071C913.765 228.071 916.215 228.771 918.84 230.346V223.346H922.69Z" fill="#952220"/>
<path d="M962.771 302.796V306.296H932.846V302.796H940.021V243.471L934.071 249.071L931.446 246.446L954.196 224.746L956.821 227.371L952.796 231.221V292.296C952.796 299.646 955.246 302.796 961.371 302.796H962.771ZM955.596 198.321C955.596 203.221 951.746 206.896 947.021 206.896C942.296 206.896 938.446 203.221 938.446 198.496C938.446 193.771 942.296 189.921 947.021 189.921C951.746 189.921 955.596 193.771 955.596 198.321Z" fill="#952220"/>
<path d="M1022.17 223.521V253.271H1018.5V250.121C1018.5 243.996 1017.8 241.546 1015.35 238.396C1012.72 234.721 1008.35 232.446 1003.8 232.446C997.324 232.446 992.074 236.646 992.074 241.721C992.074 246.096 995.399 249.596 1002.75 252.746L1005.55 253.971L1013.07 257.121C1028.47 263.771 1034.07 270.246 1034.07 281.096C1034.07 296.846 1020.07 308.046 1000.82 308.046C984.024 308.046 971.249 297.721 971.249 284.071C971.249 274.446 979.124 266.396 988.749 266.396C996.099 266.396 1002.05 271.471 1002.05 277.596C1002.05 282.146 998.199 286.871 994.524 286.871C992.599 286.871 991.024 285.471 991.024 283.896C991.024 283.371 991.199 282.671 991.549 281.796C992.074 280.221 992.424 279.346 992.424 278.296C992.424 274.796 989.449 272.171 985.424 272.171C980.174 272.171 975.974 276.896 975.974 282.846C975.974 293.521 989.099 303.321 1003.27 303.321C1015.7 303.321 1024.62 295.971 1024.62 285.821C1024.62 277.771 1021.12 274.096 1008 268.846L1002.92 266.746C988.224 260.971 982.624 255.196 982.624 246.096C982.624 235.946 991.374 228.071 1002.75 228.071C1008.17 228.071 1012.2 229.296 1018.5 232.796V223.521H1022.17Z" fill="#952220"/>
<path d="M1054.77 251.696C1052.67 256.421 1051.97 259.396 1051.97 264.296C1051.97 283.896 1069.47 301.396 1089.25 301.396C1102.9 301.396 1114.1 294.221 1121.1 280.921L1124.6 282.671C1117.42 298.596 1102.2 308.046 1083.47 308.046C1060.55 308.046 1043.05 291.421 1043.05 269.721C1043.05 246.446 1062.65 228.071 1087.67 228.071C1105.17 228.071 1118.65 236.821 1124.25 251.696H1054.77ZM1056.7 247.846H1107.97C1102.55 238.921 1093.45 234.021 1082.6 234.021C1071.92 234.021 1062.82 238.921 1056.7 247.846Z" fill="#952220"/>
<path d="M1183.2 223.521V253.271H1179.53V250.121C1179.53 243.996 1178.83 241.546 1176.38 238.396C1173.75 234.721 1169.38 232.446 1164.83 232.446C1158.35 232.446 1153.1 236.646 1153.1 241.721C1153.1 246.096 1156.43 249.596 1163.78 252.746L1166.58 253.971L1174.1 257.121C1189.5 263.771 1195.1 270.246 1195.1 281.096C1195.1 296.846 1181.1 308.046 1161.85 308.046C1145.05 308.046 1132.28 297.721 1132.28 284.071C1132.28 274.446 1140.15 266.396 1149.78 266.396C1157.13 266.396 1163.08 271.471 1163.08 277.596C1163.08 282.146 1159.23 286.871 1155.55 286.871C1153.63 286.871 1152.05 285.471 1152.05 283.896C1152.05 283.371 1152.23 282.671 1152.58 281.796C1153.1 280.221 1153.45 279.346 1153.45 278.296C1153.45 274.796 1150.48 272.171 1146.45 272.171C1141.2 272.171 1137 276.896 1137 282.846C1137 293.521 1150.13 303.321 1164.3 303.321C1176.73 303.321 1185.65 295.971 1185.65 285.821C1185.65 277.771 1182.15 274.096 1169.03 268.846L1163.95 266.746C1149.25 260.971 1143.65 255.196 1143.65 246.096C1143.65 235.946 1152.4 228.071 1163.78 228.071C1169.2 228.071 1173.23 229.296 1179.53 232.796V223.521H1183.2Z" fill="#952220"/>
<line x1="361" y1="175.296" x2="1255" y2="175.296" stroke="#952220" stroke-width="6"/>
<line x1="34" y1="39.296" x2="237" y2="39.296" stroke="#952220" stroke-width="6"/>
<line x1="272" y1="68.296" x2="272" y2="285.296" stroke="#952220" stroke-width="6"/>
<line x1="34" y1="308.296" x2="237" y2="308.296" stroke="#952220" stroke-width="6"/>
<line x1="3" y1="68.296" x2="3.00001" y2="285.296" stroke="#952220" stroke-width="6"/>
<path d="M53.9999 135.296C126.602 139.296 150.046 184.786 126.602 251.963C111.978 224.858 102.663 208.09 86.8789 189.93C86.2595 189.217 85.1005 189.692 85.1562 190.634C86.4203 212.002 89.6619 230.121 106.5 262.796C43.6434 242.796 16.5472 215.309 53.9999 135.296Z" fill="#BC8D42"/>
<path d="M204.72 80.296C160.232 94.698 140.684 108.031 113 138.818C131.746 149.58 145.805 161.688 149.822 208.774C160.624 173.794 168.05 146.458 187.668 124.31C188.285 123.614 189.413 124.096 189.362 125.025C186.563 176.767 173.665 213.981 157.186 267.296C235.546 239.392 265.344 211.007 204.72 80.296Z" fill="#952220"/>
</svg>
